<svg width="16" height="15" viewBox="0 0 16 15" fill="none" xmlns="http://www.w3.org/2000/svg">
<path d="M9.69533 0.134521C9.0335 0.134521 8.43785 0.167613 7.84219 0.200706C7.24654 0.266889 6.68398 0.299981 6.1876 0.366164C6.22069 0.796358 6.25379 1.25964 6.28688 1.78911C6.31997 2.31858 6.35306 2.81496 6.38615 3.34443C6.38615 3.8739 6.41924 4.37027 6.41924 4.83356C6.41924 5.29684 6.45234 5.69395 6.45234 6.02486C6.05523 6.05796 5.65813 6.09105 5.26103 6.09105C4.86393 6.09105 4.43374 6.09105 4.03663 6.09105C3.47407 6.09105 2.9446 6.09105 2.41514 6.05796C1.88567 6.05796 1.42238 6.02486 0.992188 5.95868C0.992188 6.58743 1.02528 7.18308 1.02528 7.74564C1.02528 8.34129 1.05837 8.87076 1.12455 9.36714C1.42238 9.36714 1.72021 9.40023 2.05113 9.40023C2.38204 9.40023 2.67987 9.40023 3.01079 9.40023C3.60644 9.40023 4.169 9.40023 4.76465 9.36714C5.36031 9.36714 5.92287 9.30095 6.51852 9.20168V9.83042C6.51852 10.2937 6.48543 10.7901 6.48543 11.2534C6.48543 11.7497 6.45234 12.213 6.45234 12.6432C6.41924 13.0734 6.38615 13.4374 6.38615 13.7683C6.38615 14.0993 6.35306 14.364 6.35306 14.4964C6.65089 14.5626 7.08108 14.5956 7.64364 14.6287C8.17311 14.6618 8.70258 14.6618 9.19896 14.6618H9.49678C9.59606 14.6618 9.69533 14.6618 9.8277 14.6287C9.8277 14.4302 9.86079 14.0662 9.86079 13.6029C9.86079 13.1396 9.89388 12.6101 9.89388 12.0145C9.89388 11.5181 9.86079 11.0217 9.86079 10.4923C9.86079 9.99588 9.8277 9.5326 9.79461 9.06931C10.2579 9.1355 10.7543 9.16859 11.3168 9.16859L12.9383 9.20168C13.4678 9.20168 13.9311 9.23477 14.3613 9.23477C14.7915 9.23477 15.0893 9.26786 15.2878 9.26786C15.2878 8.97004 15.3209 8.57293 15.354 8.04346C15.3871 7.54709 15.4202 7.05071 15.4202 6.58742C15.4202 6.25651 15.3871 6.02486 15.354 5.92559C15.2878 5.82631 15.0231 5.76013 14.5267 5.76013C14.1958 5.76013 13.7987 5.79322 13.4016 5.79322C12.9714 5.79322 12.5412 5.82631 12.0779 5.82631L10.7874 5.8925C10.3572 5.92559 9.99316 5.95868 9.66224 5.95868C9.66224 5.36303 9.69533 4.73428 9.69533 4.00626C9.69533 3.31134 9.72843 2.6495 9.72843 2.05385C9.72843 1.62365 9.69533 1.22655 9.69533 0.895633C9.69533 0.564715 9.69533 0.333073 9.69533 0.134521Z" fill="white"/>
</svg>
