<svg width="21" height="21" viewBox="0 0 21 21" fill="none" xmlns="http://www.w3.org/2000/svg">
<path d="M1.55112 1.69522C2.27149 0.974845 3.43945 0.974846 4.15982 1.69522L18.9424 16.4778C19.6628 17.1982 19.6628 18.3661 18.9424 19.0865C18.2221 19.8069 17.0541 19.8069 16.3337 19.0865L1.55112 4.30391C0.83075 3.58354 0.83075 2.41559 1.55112 1.69522Z" fill="white"/>
<path d="M18.9427 1.69516C19.6631 2.41554 19.6631 3.58349 18.9427 4.30386L4.16011 19.0865C3.43974 19.8068 2.27179 19.8068 1.55142 19.0865C0.831048 18.3661 0.831048 17.1981 1.55142 16.4778L16.334 1.69516C17.0544 0.974793 18.2224 0.974793 18.9427 1.69516Z" fill="white"/>
</svg>
