<svg width="21" height="21" viewBox="0 0 21 21" fill="none" xmlns="http://www.w3.org/2000/svg">
<path d="M1.95932 1.61648C2.6797 0.89611 3.84765 0.89611 4.56802 1.61648L19.3506 16.3991C20.071 17.1195 20.071 18.2874 19.3506 19.0078C18.6303 19.7282 17.4623 19.7282 16.7419 19.0078L1.95932 4.22518C1.23895 3.5048 1.23895 2.33685 1.95932 1.61648Z" fill="white"/>
<path d="M19.3509 1.61643C20.0713 2.3368 20.0713 3.50475 19.3509 4.22512L4.56832 19.0077C3.84795 19.7281 2.67999 19.7281 1.95962 19.0077C1.23925 18.2874 1.23925 17.1194 1.95962 16.399L16.7422 1.61643C17.4626 0.896058 18.6306 0.896058 19.3509 1.61643Z" fill="white"/>
</svg>
