<svg width="23" height="29" viewBox="0 0 23 29" fill="none" xmlns="http://www.w3.org/2000/svg">
<path d="M7.0498 3.58971C7.0498 2.03251 8.31998 0.770142 9.88683 0.770142H20.1001C21.667 0.770142 22.9371 2.0325 22.9371 3.58971V18.7263C22.9371 20.2835 21.667 21.5459 20.1001 21.5459H17.7606V18.1624H18.5327C19.085 18.1624 19.5327 17.7147 19.5327 17.1624V5.15362C19.5327 4.60134 19.085 4.15362 18.5327 4.15362H11.4542C10.9019 4.15362 10.4542 4.60134 10.4542 5.15362V5.91961H7.0498V3.58971Z" fill="#FFF9ED"/>
<path fill-rule="evenodd" clip-rule="evenodd" d="M0.37207 10.2676C0.37207 8.71036 1.64225 7.448 3.20909 7.448H13.4224C14.9892 7.448 16.2594 8.71036 16.2594 10.2676V25.4042C16.2594 26.9614 14.9892 28.2237 13.4224 28.2237H3.20909C1.64225 28.2237 0.37207 26.9614 0.37207 25.4042V10.2676ZM4.7765 10.8315C4.22421 10.8315 3.7765 11.2792 3.7765 11.8315V23.8403C3.7765 24.3925 4.22421 24.8403 4.7765 24.8403H11.855C12.4073 24.8403 12.855 24.3925 12.855 23.8403V11.8315C12.855 11.2792 12.4073 10.8315 11.855 10.8315H4.7765Z" fill="#FFF9ED"/>
</svg>
