<svg width="240" height="196" viewBox="0 0 240 196" fill="none" xmlns="http://www.w3.org/2000/svg">
<path d="M120.075 195.735C80.1282 144.994 40.5091 94.6564 0.952393 44.4097C8.70453 35.807 16.1601 27.4543 23.6989 19.1812C28.8497 13.5275 34.0212 7.89091 39.3801 2.4702C40.6079 1.2315 42.6214 0.276912 44.2759 0.27123C94.7948 0.157588 145.319 0.16327 195.838 0.242819C197.315 0.242819 199.199 0.776936 200.203 1.83949C213.028 15.4481 225.728 29.1987 238.454 42.921C238.709 43.1994 238.87 43.5801 239.297 44.2847C199.709 94.5769 160.09 144.903 120.075 195.735ZM199.828 18.4823C199.709 20.8574 199.594 22.17 199.589 23.4826C199.568 29.5283 199.511 35.5797 199.615 41.6198C199.657 43.9722 199.162 45.1143 196.717 45.0915C186.645 44.9779 176.572 44.9949 166.505 45.0859C164.481 45.1029 163.617 44.3415 163.253 42.1596C161.328 30.6647 154.439 23.6985 145.168 19.0278C137.14 14.9822 128.597 13.4594 119.846 13.2718C107.209 12.9991 94.5191 13.1355 82.9169 19.4937C78.8951 21.6984 74.941 24.977 72.1836 28.8124C67.3814 35.4888 69.0723 43.3301 75.5966 47.9894C77.9951 49.6997 80.6537 51.0861 83.3383 52.1998C93.8167 56.541 104.815 56.0125 115.767 56.2512C129.331 56.5523 142.915 56.9046 156.422 58.149C165.615 58.9956 174.6 62.0696 182.045 68.2915C186.697 72.1781 190.422 77.3715 194.683 82.1047C204.095 70.1382 213.996 57.5524 223.241 45.8018C215.447 36.7105 207.94 27.9544 199.828 18.4823ZM71.939 115.68C72.6206 115.186 73.0316 114.907 73.4218 114.601C87.3809 103.628 103.634 105.799 114.982 120.004C115.908 121.169 117.697 122.158 119.076 122.146C129.393 122.05 139.726 121.925 150.027 121.317C156.354 120.942 162.54 119.481 167.249 114.106C172.425 108.191 172.379 102.52 165.984 98.3611C160.563 94.8325 154.523 91.7983 148.399 90.321C129.799 85.8264 110.778 87.8095 91.9281 87.2299C77.3031 86.781 62.5376 89.6675 47.2467 84.2866C55.8625 95.253 63.8695 105.43 71.939 115.68ZM120.075 176.859C130.944 163.04 141.526 149.579 151.812 136.499C141.178 137.562 130.574 139.454 119.976 139.448C109.409 139.443 98.8374 137.539 88.307 136.471C98.5825 149.534 109.128 162.938 120.075 176.859ZM32.835 66.0244C31.784 39.2447 48.4121 25.977 66.0443 12.465C59.8062 12.465 54.4213 12.2718 49.0572 12.573C47.2727 12.6752 45.1448 13.59 43.8545 14.9197C37.0961 21.92 30.5822 29.1987 23.9278 36.3241C21.3525 39.0856 18.6262 41.6766 15.8583 44.4608C21.8415 52.0578 27.2888 58.9786 32.835 66.0244ZM170.74 27.1418C173.893 24.3349 175.75 20.3176 175.708 15.3742C175.698 14.4196 174.787 12.6582 174.257 12.6411C167.977 12.4479 161.687 12.5161 155.782 12.5161C160.688 17.3175 165.501 22.0223 170.74 27.1418Z" fill="#E8D0C6"/>
</svg>
