<svg width="16" height="5" viewBox="0 0 16 5" fill="none" xmlns="http://www.w3.org/2000/svg">
<path d="M5.26103 1.0399C4.86393 1.0399 4.43374 1.0399 4.03663 1.0399C3.47407 1.0399 2.9446 1.0399 2.41514 1.00681C1.88567 1.00681 1.42238 0.973719 0.992188 0.907536C0.992188 1.53628 1.02528 2.13193 1.02528 2.69449C1.02528 3.29015 1.05837 3.81961 1.12455 4.31599C1.42238 4.31599 1.72021 4.34908 2.05113 4.34908C2.38204 4.34908 2.67987 4.34908 3.01079 4.34908C3.60644 4.34908 4.169 4.34908 4.76465 4.31599C9.31058 4.31599 8.41734 4.11744 11.3168 4.11744L12.9383 4.15053C13.4678 4.15053 13.9311 4.18362 14.3613 4.18362C14.7915 4.18362 15.0893 4.21672 15.2878 4.21672C15.2878 3.91889 15.3209 3.52179 15.354 2.99232C15.3871 2.49594 15.4202 1.99956 15.4202 1.53628C15.4202 1.20536 15.3871 0.97372 15.354 0.874444C15.2878 0.775168 15.0231 0.708984 14.5267 0.708984C14.1958 0.708984 13.7987 0.742076 13.4016 0.742076C12.9714 0.742076 12.5412 0.775168 12.0779 0.775168L10.7874 0.841352C9.35818 0.951288 8.24464 1.0399 5.26103 1.0399Z" fill="white"/>
</svg>
